<svg xmlns="http://www.w3.org/2000/svg" xmlns:xlink="http://www.w3.org/1999/xlink"
  viewBox="0 0 100 100">
  <path stroke="none"
    d="M 89.8 42.8 c -7.8 -1.4 -7.8 -1.4 -7.8 -1.4 c -0.7 -3.1 -1.9 -5.9 -3.6 -8.7 c 4.7 -6.7 4.7 -6.7 4.7 -6.7 c 0.9 -1.2 0.7 -2.9 -0.2 -3.9 c -2.7 -2.7 -2.7 -2.7 -2.7 -2.7 c -2.8 -2.9 -2.8 -2.9 -2.8 -2.9 c -1 -1 -2.8 -1.1 -3.8 -0.2 C 66.8 21.2 66.8 21.2 66.8 21.2 c -2.7 -1.5 -5.5 -2.7 -8.5 -3.7 c -1.4 -8 -1.4 -8 -1.4 -8 c -0.2 -1.5 -1.5 -2.5 -3 -2.5 c -4 0 -4 0 -4 0 c -4 0 -4 0 -4 0 c -1.5 0 -2.8 1.1 -3 2.5 c -1.4 8 -1.4 8 -1.4 8 c -3 0.7 -5.9 2 -8.6 3.8 c -6.5 -4.6 -6.5 -4.6 -6.5 -4.6 c -1.2 -0.8 -2.8 -0.7 -3.8 0.4 c -2.7 2.7 -2.7 2.7 -2.7 2.7 c -2.8 2.9 -2.8 2.9 -2.8 2.9 c -0.9 1 -1.2 2.9 -0.2 3.9 c 4.7 6.8 4.7 6.8 4.7 6.8 c -1.5 2.7 -2.8 5.7 -3.5 8.7 c -7.8 1.2 -7.8 1.2 -7.8 1.2 c -1.5 0.4 -2.4 1.5 -2.4 3.1 c 0 4.2 0 4.2 0 4.2 c 0 4 0 4 0 4 c 0 1.5 1 2.7 2.4 3.1 c 8 1.3 8 1.3 8 1.3 c 0.8 3 1.9 5.9 3.5 8.6 c -4.3 6.5 -4.3 6.5 -4.3 6.5 c -0.8 1.2 -0.7 2.9 0.2 3.9 c 2.8 2.7 2.8 2.7 2.8 2.7 c 2.7 2.9 2.7 2.9 2.7 2.9 c 0.9 1 2.8 1.3 3.8 0.2 c 6.6 -4.8 6.6 -4.8 6.6 -4.8 c 2.7 1.7 5.6 2.9 8.5 3.6 c 1.4 8 1.4 8 1.4 8 c 0.2 1.5 1.5 2.5 3 2.5 c 4 0 4 0 4 0 c 4 0 4 0 4 0 c 1.5 0 2.8 -1.1 3 -2.5 c 1.4 -8.2 1.4 -8.2 1.4 -8.2 c 2.9 -0.6 5.6 -1.9 8.3 -3.4 c 6.4 4.8 6.4 4.8 6.4 4.8 c 1.3 0.8 2.9 0.7 3.8 -0.2 c 2.8 -2.9 2.8 -2.9 2.8 -2.9 c 2.7 -2.7 2.7 -2.7 2.7 -2.7 c 1 -1.1 1.3 -2.9 0.3 -3.9 c -4.7 -6.7 -4.7 -6.7 -4.7 -6.7 c 1.6 -2.9 2.7 -5.6 3.5 -8.7 c 7.7 -1.4 7.7 -1.4 7.7 -1.4 c 1.5 -0.2 2.6 -1.5 2.6 -3.1 c 0 -4 0 -4 0 -4 c 0 -4 0 -4 0 -4 C 92.3 44.4 91.2 43 89.8 42.8 z M 50 74.8 C 36.3 74.8 25.2 63.7 25.2 50 c 0 -13.7 11.1 -24.8 24.8 -24.8 c 13.7 0 24.8 11.1 24.8 24.8 C 74.8 63.7 63.7 74.8 50 74.8 z M 71.8 48.5 c -0.3 -4.9 -2.3 -9.3 -5.3 -12.8 l -2.6 2.6 l -2.1 -2.1 l 2.6 -2.6 c -3.5 -3 -7.9 -5 -12.8 -5.3 v 3.7 h -3 v -3.7 c -4.9 0.3 -9.3 2.3 -12.8 5.3 l 2.6 2.6 l -2.1 2.1 l -2.6 -2.6 c -3 3.5 -5 7.9 -5.3 12.8 h 3.7 v 3 h -3.7 c 0.3 4.9 2.3 9.3 5.3 12.8 l 2.6 -2.6 l 2.1 2.1 l -2.6 2.6 c 3.5 3 7.9 5 12.8 5.3 v -3.7 h 3 v 3.7 c 4.9 -0.3 9.3 -2.3 12.8 -5.3 l -2.6 -2.6 l 2.1 -2.1 l 2.6 2.6 c 3 -3.5 5 -7.9 5.3 -12.8 h -3.7 v -3 H 71.8 z M 60.9 51.5 h -6.4 c -0.6 1.9 -2.4 3.3 -4.6 3.3 c -2.7 0 -4.8 -2.2 -4.8 -4.8 c 0 -2.1 1.4 -3.9 3.3 -4.6 v -9.8 h 3 v 9.8 c 1.5 0.5 2.6 1.6 3.1 3.1 h 6.4 V 51.5 z M 51.8 50 c 0 1 -0.8 1.8 -1.8 1.8 S 48.2 51 48.2 50 s 0.8 -1.8 1.8 -1.8 S 51.8 49 51.8 50 z" />
</svg>