<?xml version="1.0" encoding="UTF-8"?>
<svg id="Layer_2" data-name="Layer 2" xmlns="http://www.w3.org/2000/svg" viewBox="0 0 398.18 398.18">
  <defs>
    <style>
      .cls-1 {
        fill: #fff;
      }

      .cls-2 {
        fill: #4A90E2;
      }
    </style>
  </defs>
  <g id="Layer_1-2" data-name="Layer 1">
    <g>
      <path class="cls-1" d="M228.51,398.18h-58.84c-8.72,0-16.34-6.2-18.12-14.73l-6.72-32.21-14.96-6.2-27.53,18.03c-7.29,4.78-17.07,3.77-23.23-2.4l-41.6-41.6c-6.17-6.17-7.17-15.94-2.4-23.23l18.03-27.53-6.2-14.96-32.21-6.72c-8.54-1.78-14.73-9.4-14.73-18.12v-58.84c0-8.72,6.2-16.34,14.73-18.12l32.21-6.72,6.2-14.96-18.03-27.53c-4.78-7.3-3.77-17.07,2.4-23.23l41.6-41.6c6.17-6.17,15.94-7.17,23.23-2.4l27.53,18.03,14.96-6.2,6.71-32.21c1.78-8.54,9.4-14.73,18.12-14.73h58.84c8.72,0,16.34,6.2,18.12,14.73l6.72,32.21,14.96,6.2,27.53-18.03c7.3-4.78,17.07-3.77,23.23,2.4l41.61,41.61c6.17,6.17,7.17,15.94,2.39,23.23l-18.03,27.53,6.2,14.96,32.21,6.72c8.54,1.78,14.73,9.4,14.73,18.12v58.84c0,8.72-6.2,16.34-14.73,18.12l-32.21,6.72-6.2,14.96,18.03,27.53c4.78,7.29,3.77,17.06-2.39,23.23l-41.61,41.61c-6.16,6.17-15.93,7.18-23.23,2.4l-27.53-18.03-14.96,6.2-6.72,32.21c-1.78,8.54-9.4,14.73-18.12,14.73ZM172.36,376.37h53.46l6.52-31.29c1.25-5.99,5.37-10.98,11.03-13.32l18.19-7.53c5.66-2.34,12.1-1.74,17.23,1.62l26.74,17.51,37.81-37.8-17.51-26.74c-3.36-5.12-3.96-11.56-1.62-17.23l7.53-18.19c2.35-5.66,7.33-9.79,13.32-11.04l31.29-6.52v-53.46l-31.29-6.52c-5.99-1.25-10.98-5.37-13.32-11.03l-7.53-18.19c-2.34-5.66-1.74-12.1,1.62-17.23l17.51-26.74-37.8-37.81-26.74,17.51c-5.12,3.36-11.56,3.96-17.23,1.62l-18.19-7.53c-5.66-2.35-9.79-7.33-11.04-13.33l-6.52-31.29h-53.46l-6.52,31.29c-1.25,6-5.38,10.98-11.04,13.33l-18.19,7.53c-5.67,2.34-12.11,1.74-17.23-1.62l-26.74-17.51-37.8,37.81,17.51,26.74c3.36,5.12,3.96,11.56,1.62,17.23l-7.53,18.19c-2.35,5.66-7.33,9.79-13.33,11.04l-31.29,6.52v53.46l31.29,6.52c6,1.25,10.98,5.38,13.32,11.03l7.53,18.19c2.34,5.67,1.74,12.11-1.62,17.23l-17.51,26.74,37.8,37.81,26.74-17.51c5.12-3.36,11.56-3.96,17.23-1.62l18.19,7.53c5.66,2.35,9.79,7.33,11.04,13.32l6.52,31.29Z"/>
      <path class="cls-2" d="M199.09,310.89c-62.23,0-112.85-50.15-112.85-111.8s50.63-111.8,112.85-111.8,112.85,50.15,112.85,111.8-50.63,111.8-112.85,111.8ZM199.09,103.65c-53.2,0-96.49,42.81-96.49,95.44s43.28,95.44,96.49,95.44,96.49-42.81,96.49-95.44-43.28-95.44-96.49-95.44Z"/>
      <!-- CACP Logo: Chrome and Audio symbols -->
      <g transform="translate(199.09,199.09)">
        <!-- Chrome-like circular segments -->
        <circle cx="0" cy="0" r="35" fill="none" stroke="#4A90E2" stroke-width="8"/>
        <circle cx="0" cy="-25" r="8" fill="#4A90E2"/>
        <circle cx="22" cy="12" r="8" fill="#4A90E2"/>
        <circle cx="-22" cy="12" r="8" fill="#4A90E2"/>
        <!-- Audio wave symbol -->
        <path d="M-15,-8 Q-10,-15 -5,-8 Q0,-15 5,-8 Q10,-15 15,-8" fill="none" stroke="#4A90E2" stroke-width="3"/>
        <path d="M-12,0 Q-8,-6 -4,0 Q0,-6 4,0 Q8,-6 12,0" fill="none" stroke="#4A90E2" stroke-width="3"/>
        <path d="M-8,8 Q-4,3 0,8 Q4,3 8,8" fill="none" stroke="#4A90E2" stroke-width="3"/>
      </g>
    </g>
  </g>
</svg>
