<svg xmlns:rdf="http://www.w3.org/1999/02/22-rdf-syntax-ns#" xmlns="http://www.w3.org/2000/svg" xmlns:cc="http://creativecommons.org/ns#" xmlns:xlink="http://www.w3.org/1999/xlink" xmlns:dc="http://purl.org/dc/elements/1.1/" xmlns:svg="http://www.w3.org/2000/svg" xmlns:inkscape="http://www.inkscape.org/namespaces/inkscape" xmlns:sodipodi="http://sodipodi.sourceforge.net/DTD/sodipodi-0.dtd" xmlns:ns1="http://sozi.baierouge.fr" id="svg2" viewBox="0 0 870.53 805.01" version="1.1">
  <defs id="defs4">
    <filter id="filter3803" color-interpolation-filters="sRGB">
      <feGaussianBlur id="feGaussianBlur3805" stdDeviation="5" result="result1"/>
      <feComposite id="feComposite3807" k4="0" in2="result1" k3="0" k2="2" k1="0" in="result1" operator="arithmetic"/>
    </filter>
    <radialGradient id="radialGradient3822" gradientUnits="userSpaceOnUse" cy="477.94" cx="370.4" gradientTransform="matrix(1 0 0 .92474 0 35.97)" r="362.72">
      <stop id="stop3797" stop-color="#fff" stop-opacity=".1" offset="0"/>
      <stop id="stop3799" stop-color="#fff" stop-opacity="0" offset="1"/>
    </radialGradient>
    <radialGradient id="radialGradient3824" gradientUnits="userSpaceOnUse" cy="579.38" cx="428.86" r="357.84">
      <stop id="stop3783" stop-color="#c8be75" offset="0"/>
      <stop id="stop3809" stop-color="#f3e68e" offset=".22936"/>
      <stop id="stop3789" stop-color="#f4e78f" offset=".7615"/>
      <stop id="stop3785" stop-color="#bdb36e" offset="1"/>
    </radialGradient>
  </defs>
  <g id="layer1" transform="translate(64.859 -75.439)">
    <g id="g3804">
      <path id="path2985" d="m779.86 579.38a351 351 0 1 1 -702.01 0 351 351 0 1 1 702.01 0z" transform="matrix(1.0333 0 0 1.0333 -72.661 -120.49)" stroke="#000000" stroke-width="4.839" fill="#010101"/>
      <path id="path3801" d="m435.33 402.73c20.443-20.443 35.324 7.2981 25.504 25.504-11.894 22.05-42.145 23.643-60.829 9.8216-24.856-18.386-26.349-54.939-7.416-78.067 22.743-27.782 65.056-29.098 91.671-6.1879 30.502 26.256 31.678 73.658 5.4102 103.27-29.283 33.011-81.257 34.08-113.54 4.8616-35.34-31.983-36.324-88.13-4.4482-122.85 34.441-37.517 94.448-38.432 131.42-4.1225 39.566 36.713 40.424 100.32 3.8574 139.4-38.834 41.505-105.83 42.316-146.9 3.6362-43.349-40.83-44.119-111.04-3.4481-153.98 42.722-45.111 115.98-45.845 160.72-3.2856 46.799 44.522 47.502 120.7 3.1434 167.15-46.243 48.422-125.21 49.098-173.31 3.0176-49.987-47.895-50.637-129.56-2.9054-179.23 49.484-51.499 133.74-52.127 184.94-2.8044 52.962 51.018 53.57 137.78 2.713 190.46-52.501 54.382-141.69 54.972-195.8 2.6296-55.762-53.938-56.334-145.48-2.5532-200.99 55.334-57.104 149.17-57.661 206.02-2.483 58.412 56.69 58.954 152.75 2.418 210.92-58.011 59.687-156.25 60.216-215.7 2.3577-60.933-59.298-61.45-159.65-2.3015-220.36 60.555-62.151 162.98-62.656 225.89-2.3199 59.983 64.116 56.931 168.73-5.2639 229.72-62.784 61.569-164.91 58.601-224.32-6.0397-59.972-65.248-56.866-171.58 6.3579-233.57 63.813-62.568 167.6-59.548 227.98 6.1537 60.937 66.309 57.778 174.37-6.4757 237.36-64.843 63.567-170.3 60.495-231.64-6.2678-61.902-67.37-58.689-177.15 6.5935-241.14 65.872-64.566 172.99-61.442 235.3 6.3818 62.868 68.432 59.601 179.93-6.7113 244.92-66.902 65.565-175.69 62.39-238.97-6.4958-63.833-69.493-60.513-182.71 6.8291-248.7 67.931-66.564 178.39-63.337 242.63 6.6099 64.798 70.554 61.424 185.5-6.9468 252.48-68.961 67.563-181.08 64.284-246.29-6.7239-65.764-71.615-62.336-188.28 7.0646-256.27 69.99-68.562 183.78-65.231 249.95 6.838 66.729 72.676 63.248 191.06-7.1824 260.05-71.02 69.561-186.48 66.178-253.61-6.952-67.694-73.738-64.159-193.85 7.3002-263.83 72.049-70.56 189.17-67.125 257.28 7.0661 68.659 74.799 65.071 196.63-7.418 267.61-73.078 71.559-191.87 68.072-260.94-7.1801-69.625-75.86-65.983-199.41 7.5358-271.39 74.108-72.558 194.57-69.019 264.6 7.2942 70.59 76.921 66.894 202.2-7.6536 275.18-75.137 73.557-197.26 69.966-268.26-7.4082-71.555-77.982-67.806-204.98 7.7714-278.96 76.167-74.556 199.96-70.914 271.92 7.5222 72.52 79.044 68.718 207.76-7.8892 282.74-77.196 75.555-202.66 71.861-275.59-7.6363-73.486-80.105-69.629-210.55 8.007-286.52 78.226-76.554 205.35-72.808 279.25 7.7503 74.451 81.166 70.541 213.33-8.1247 290.3-79.255 77.553-208.05 73.755-282.91-7.8644-75.416-82.227-71.453-216.11 8.2425-294.09 80.285-78.552 210.75-74.702 286.57 7.9784 76.382 83.288 72.364 218.89-8.3603 297.87-81.314 79.552-213.44 75.649-290.23-8.0925-77.347-84.35-73.276-221.68 8.4781-301.65 82.344-80.551 216.14-76.596 293.89 8.2065 78.312 85.411 74.187 224.46-8.5959 305.43-83.373 81.55-218.84 77.543-297.56-8.3205-79.277-86.472-75.099-227.24 8.7137-309.22 84.403-82.549 221.53-78.491 301.22 8.4346 80.243 87.533 76.011 230.03-8.8315 313-85.432 83.548-224.23 79.438-304.88-8.5486-81.208-88.594-76.922-232.81 8.9492-316.78 86.462-84.547 226.93-80.385 308.54 8.6627 82.173 89.656 77.834 235.59-9.067 320.56-87.491 85.546-229.62 81.332-312.2-8.7767-83.138-90.717-78.746-238.38 9.1848-324.34 88.52-86.545 232.32-82.279 315.87 8.8908 84.104 91.778 79.657 241.16-9.3026 328.13-89.55 87.544-235.02 83.226-319.53-9.0048-85.069-92.839-80.569-243.94 9.4204-331.91 90.579-88.543 237.71-84.173 323.19 9.1188 86.034 93.9 81.481 246.72-9.5382 335.69-91.609 89.542-240.41 85.12-326.85-9.2329-87-94.961-82.392-249.51 9.656-339.47 92.638-90.541 243.11-86.067 330.51 9.3469 87.965 96.023 83.304 252.29-9.7738 343.25-93.668 91.54-245.8 87.015-334.18-9.461-88.93-97.084-84.216-255.07 9.8915-347.04 94.697-92.539 248.5-87.962 337.84 9.575 89.895 98.145 85.127 257.86-10.009 350.82-95.727 93.538-251.2 88.909-341.5-9.6891-90.861-99.206-86.039-260.64 10.127-354.6 96.756-94.537 253.89-89.856 345.16 9.8031 91.826 100.27 86.951 263.42-10.245 358.38-97.786 95.536-256.59 90.803-348.82-9.9172-92.791-101.33-87.862-266.21 10.363-362.16 98.815-96.535 259.29-91.75 352.48 10.031 93.757 102.39 88.774 268.99-10.48 365.95-99.84 97.54-261.98 92.71-356.14-10.13-94.72-103.46-89.69-271.78 10.6-369.73 100.87-98.54 264.67-93.65 359.8 10.26 95.69 104.51 90.6 274.55-10.71 373.51-101.91 99.53-267.38 94.59-363.47-10.38-96.65-105.57-91.51-277.33 10.83-377.29 102.93-100.53 270.07-95.54 367.13 10.49 97.62 106.63 92.42 280.12-10.95 381.07-103.96 101.53-272.77 96.49-370.79-10.6-98.59-107.69-93.33-282.9 11.07-384.86 104.99-102.52 275.46-97.43 374.45 10.72 99.55 108.76 94.25 285.69-11.18 388.64-106.03 103.53-278.17 98.38-378.12-10.83-100.52-109.82-95.16-288.47 11.3-392.42 107.05-104.53 280.86-99.329 381.78 10.94 101.48 110.88 96.07 291.25-11.42 396.21-108.08 105.52-283.55 100.27-385.44-11.06-102.45-111.94-96.98-294.04 11.54-399.99 109.11-106.52 286.25-101.22 389.1 11.17 103.41 113.01 97.89 296.82-11.66 403.77-110.14 107.53-288.94 102.17-392.76-11.28-104.38-114.07-98.8-299.61 11.78-407.55 111.16-108.53 291.64-103.12 396.42 11.4 105.34 115.12 99.72 302.38-11.89 411.33-112.2 109.52-294.34 104.06-400.09-11.52-106.31-116.18-100.63-305.16 12.01-415.11 113.23-110.52 297.04-105.01 403.75 11.63 107.27 117.24 101.54 307.95-12.13 418.89-114.25 111.52-299.73 105.96-407.41-11.74-108.24-118.31-102.45-310.73 12.25-422.68 115.28-112.52 302.43-106.9 411.07 11.86 109.2 119.37 103.36 313.52-12.36 426.46-116.32 113.52-305.13 107.85-414.74-11.97-110.17-120.43-104.27-316.3 12.48-430.24 117.35-114.52 307.83-108.8 418.4 12.08 111.13 121.49 105.18 319.09-12.6 434.03-118.37 115.51-310.52 109.74-422.06-12.2-112.1-122.55-106.1-321.87 12.72-437.81 119.4-116.52 313.22-110.69 425.72 12.31 113.06 123.62 107.01 324.65-12.84 441.59-120.43 117.52-315.91 111.64-429.38-12.42-114.03-124.68-107.92-327.44 12.95-445.37 121.47-118.52 318.61-112.59 433.05 12.54 114.99 125.73 108.83 330.21-13.07 449.15-122.49 119.51-321.31 113.53-436.71-12.66-115.96-126.79-109.74-332.99 13.19-452.93 123.52-120.51 324-114.48 440.37 12.77 116.92 127.86 110.65 335.78-13.31 456.71-124.55 121.52-326.7 115.43-444.03-12.88-117.89-128.92-111.56-338.56 13.43-460.5 125.58-122.51 329.39-116.37 447.69 13 118.85 129.98 112.48 341.35-13.54 464.28-126.61 123.51-332.1 117.32-451.36-13.11-119.82-131.04-113.39-344.13 13.66-468.06 127.64-124.51 334.79-118.27 455.02 13.22 120.78 132.1 114.3 346.92-13.78 471.85-128.67 125.5-337.48 119.21-458.68-13.34-121.75-133.17-115.21-349.7 13.9-475.63 129.7-126.51 340.18-120.16 462.34 13.45 122.71 134.23 116.12 352.48-14.02 479.41-130.72 127.51-342.87 121.11-466-13.56-123.68-135.29-117.03-355.27 14.13-483.2 131.76-128.5 345.58-122.05 469.67 13.69 124.64 136.34 117.95 358.04-14.25 486.97-132.79 129.5-348.27 123-473.33-13.8-125.61-137.4-118.86-360.82 14.37-490.75 133.82-130.5 350.97-123.95 476.99 13.91 126.57 138.47 119.77 363.61-14.49 494.54-134.84 131.5-353.66 124.89-480.65-14.03-127.54-139.53-120.68-366.39 14.61-498.32 135.87-132.5 356.36-125.84 484.31 14.14 128.5 140.59 121.59 369.18-14.72 502.1-136.91 133.5-359.06 126.8-487.98-14.25-129.47-141.65-122.5-371.96 14.84-505.88 137.94-134.5 361.76-127.74 491.64 14.36 130.43 142.72 123.41 374.75-14.96 509.67-138.96 135.5-364.45 128.69-495.3-14.48-131.4-143.78-124.32-377.53 15.08-513.45 139.99-136.5 367.15-129.64 498.96 14.59 132.36 144.84 125.24 380.31-15.19 517.23-141.03 137.5-369.85 130.59-502.63-14.7-133.33-145.9-126.15-383.1 15.31-521.02 142.06-138.49 372.54-131.53 506.29 14.82 134.3 146.96 127.06 385.88-15.43 524.8-143.08 139.49-375.24 132.48-509.95-14.94-135.26-148.02-127.97-388.65 15.55-528.57" transform="matrix(.030137 .99952 -.96774 .031126 745.67 30.696)" stroke="#171717" stroke-width="1.0163px" fill="none"/>
      <path id="path3791" filter="url(#filter3803)" d="m733.12 477.56-725.44 0.82c1.8902 136.58 71.96 268.63 224.62 334.99l276.1-670.85c133.03 57.037 221.04 178.59 224.73 335.04z" fill="url(#radialGradient3822)"/>
      <path id="path3763" d="m779.86 579.38a351 351 0 1 1 -702.01 0 351 351 0 1 1 702.01 0z" transform="matrix(.36571 0 0 .36571 213.63 266.28)" stroke="#fff" stroke-width="13.672" fill="url(#radialGradient3824)"/>
      <path id="path3765" d="m779.86 579.38a351 351 0 1 1 -702.01 0 351 351 0 1 1 702.01 0z" stroke="#fff" stroke-width="148.66" transform="matrix(.033633 0 0 .033633 356.04 458.68)"/>
      <text id="text3777" style="word-spacing:0px;letter-spacing:0px" xml:space="preserve" font-size="40px" line-height="125%" y="483.60452" x="374.39481" font-family="Sans" fill="#000000">
        <tspan id="tspan3779" y="483.60452" x="374.39481">   </tspan>
      </text>
    </g>
  </g>
  <metadata>
    <rdf:RDF>
      <cc:Work>
        <dc:format>image/svg+xml</dc:format>
        <dc:type rdf:resource="http://purl.org/dc/dcmitype/StillImage"/>
        <cc:license rdf:resource="http://creativecommons.org/licenses/publicdomain/"/>
        <dc:publisher>
          <cc:Agent rdf:about="http://openclipart.org/">
            <dc:title>Openclipart</dc:title>
          </cc:Agent>
        </dc:publisher>
        <dc:title>Vinyl Disc</dc:title>
        <dc:date>2013-08-16T01:00:13</dc:date>
        <dc:description>Uploading again.</dc:description>
        <dc:source>https://openclipart.org/detail/181863/vinyl-disc-by-gustavorezende-181863</dc:source>
        <dc:creator>
          <cc:Agent>
            <dc:title>gustavorezende</dc:title>
          </cc:Agent>
        </dc:creator>
        <dc:subject>
          <rdf:Bag>
            <rdf:li>circle</rdf:li>
            <rdf:li>disc</rdf:li>
            <rdf:li>music</rdf:li>
            <rdf:li>notes</rdf:li>
            <rdf:li>old</rdf:li>
            <rdf:li>plastic</rdf:li>
            <rdf:li>sounds</rdf:li>
            <rdf:li>vinyl</rdf:li>
          </rdf:Bag>
        </dc:subject>
      </cc:Work>
      <cc:License rdf:about="http://creativecommons.org/licenses/publicdomain/">
        <cc:permits rdf:resource="http://creativecommons.org/ns#Reproduction"/>
        <cc:permits rdf:resource="http://creativecommons.org/ns#Distribution"/>
        <cc:permits rdf:resource="http://creativecommons.org/ns#DerivativeWorks"/>
      </cc:License>
    </rdf:RDF>
  </metadata>
</svg>